<svg id="Layer_7" data-name="Layer 7" xmlns="http://www.w3.org/2000/svg" xmlns:xlink="http://www.w3.org/1999/xlink" viewBox="0 0 65.82 59.37"><defs><style>.cls-1{fill:url(#radial-gradient);}</style><radialGradient id="radial-gradient" cx="357.16" cy="331.14" fx="335.29028370839995" fy="287.21413358220343" r="49.07" gradientUnits="userSpaceOnUse"><stop offset="0.06" stop-color="#644376"/><stop offset="0.25" stop-color="#5f4173"/><stop offset="0.41" stop-color="#553c6e"/><stop offset="0.48" stop-color="#503b6a"/><stop offset="0.55" stop-color="#43395f"/><stop offset="0.63" stop-color="#2d354d"/><stop offset="0.63" stop-color="#2c354c"/></radialGradient></defs><title>Nadles_noemboss</title><path class="cls-1" d="M334.16,344.5l-.59,4.14c-.19,1.16-.72,6.08-.72,6.08s-1.15-.4-3.55-3.87c-3.36-4.83-7.37-11.11-3.38-23.15,6.24-18.85,24.88-24.25,26.47-24.78s20.57-5.12,26.55,5.24a2.91,2.91,0,0,1,.27.69,11.23,11.23,0,0,1,.35,3.26c-.2,3.1-1,9.78-3.63,23.36-1.35,6.83-6.79,7-8.31,6.6-4.51-1.31-9.6-6-10.2-6.55l-.14-.11-12.55-10.25.92,1.3a2.79,2.79,0,0,1,.49,2l-2.68,20.72a3.19,3.19,0,0,0,2,3.3c4.65,1.53,15.5,3.17,27.33-6.7,3-2.53,13.14-14,7.94-26.39l.65-5.33c.16-1.23.64-5.82.66-5.91a22.61,22.61,0,0,1,7,11.24c1.21,4.07,1.59,9.18-.76,16-5.7,16.42-18.92,21.72-24.41,23.73-.29.1-1.11.29-1.4.36-2.89.65-19.78,4.07-25.7-3a5.72,5.72,0,0,1-1.28-3.08c-.85-7.64,2.74-24.54,3.16-28a8.47,8.47,0,0,1,1-3.09c1.47-2.67,5-7,11.47-3.76a5.77,5.77,0,0,1,1.21.8l15.48,12.84a2.55,2.55,0,0,0,.38.26c.7.4,2.07,1.14,2.07,1.14l-.68-.72a2.78,2.78,0,0,1-.74-2.36l2.67-17.81a2.3,2.3,0,0,0-1.46-2.77c-5.18-2-19.23-3.74-31.19,8.63a24.91,24.91,0,0,0-5.58,9C329.05,339.25,334.45,344.3,334.16,344.5Z" transform="translate(-324.25 -301.45)"/></svg>